HIERARCHY
ROOT Hips
{
	OFFSET 0.00000 0.00000 0.00000
	CHANNELS 6 Xposition Yposition Zposition Zrotation Yrotation Xrotation 
	JOINT LHipJoint
	{
		OFFSET 0 0 0
		CHANNELS 3 Zrotation Yrotation Xrotation
		JOINT LeftHip
		{
			OFFSET 1.83091 -1.65485 0.80491
			CHANNELS 3 Zrotation Yrotation Xrotation
			JOINT LeftKnee
			{
				OFFSET 2.11983 -5.82419 0.00000
				CHANNELS 3 Zrotation Yrotation Xrotation
				JOINT LeftAnkle
				{
					OFFSET 2.66794 -7.33011 0.00000
					CHANNELS 3 Zrotation Yrotation Xrotation
					JOINT LeftToe
					{
						OFFSET 0.15587 -0.42826 1.82520
						CHANNELS 3 Zrotation Yrotation Xrotation
						End Site
						{
							OFFSET 0.00000 -0.00000 0.94802
						}
					}
				}
			}
		}
	}
	JOINT RHipJoint
	{
		OFFSET 0 0 0
		CHANNELS 3 Zrotation Yrotation Xrotation
		JOINT RightHip
		{
			OFFSET -1.96593 -1.65485 0.80491
			CHANNELS 3 Zrotation Yrotation Xrotation
			JOINT RightKnee
			{
				OFFSET -2.00526 -5.50940 0.00000
				CHANNELS 3 Zrotation Yrotation Xrotation
				JOINT RightAnkle
				{
					OFFSET -2.64167 -7.25794 0.00000
					CHANNELS 3 Zrotation Yrotation Xrotation
					JOINT RightToe
					{
						OFFSET -0.19578 -0.53789 1.94104
						CHANNELS 3 Zrotation Yrotation Xrotation
						End Site
						{
							OFFSET -0.00000 -0.00000 1.01373
						}
					}
				}
			}
		}
	}
	JOINT lowerback
	{
		OFFSET 0 0 0
		CHANNELS 3 Zrotation Yrotation Xrotation
		JOINT Chest
		{
			OFFSET 0.01139 2.01356 -0.24266
			CHANNELS 3 Zrotation Yrotation Xrotation
			JOINT Chest2
			{
				OFFSET 0.00315 2.01402 -0.18659
				CHANNELS 3 Zrotation Yrotation Xrotation
				JOINT lowerneck
				{
					OFFSET 0 0 0
					CHANNELS 3 Zrotation Yrotation Xrotation
					JOINT Neck
					{
						OFFSET -0.15348 1.85288 0.32547
						CHANNELS 3 Zrotation Yrotation Xrotation
						JOINT Head
						{
							OFFSET 0.23013 1.84255 -0.51894
							CHANNELS 3 Zrotation Yrotation Xrotation
							End Site
							{
								OFFSET 0.08244 1.94374 -0.22179
							}
						}
					}
				}
				JOINT LeftCollar
				{
					OFFSET 0 0 0
					CHANNELS 3 Zrotation Yrotation Xrotation
					JOINT LeftShoulder
					{
						OFFSET 3.63468 1.26528 -0.10015
CHANNELS 3 Zrotation Xrotation Yrotation
						JOINT LeftElbow
						{
OFFSET 0 -5.535930 -0.000000
CHANNELS 3 Zrotation Xrotation Yrotation
							JOINT LeftWrist
							{
OFFSET 0 -3.133450 0.000000
CHANNELS 3 Zrotation Xrotation Yrotation
								JOINT lhand
								{
									OFFSET 0 0 0
CHANNELS 3 Zrotation Xrotation Yrotation
									JOINT LFingers
									{
OFFSET 0 -0.713370 0.000000
CHANNELS 3 Zrotation Xrotation Yrotation
										End Site
										{
OFFSET 0 -0.575140 0.000000
										}
									}
								}
								JOINT LThumb
								{
OFFSET 0 0.000000 0.000000
CHANNELS 3 Zrotation Xrotation Yrotation
									End Site
									{
OFFSET 0 -0.583920 0.583920
									}
								}
							}
						}
					}
				}
				JOINT RightCollar
				{
					OFFSET 0 0 0
					CHANNELS 3 Zrotation Yrotation Xrotation
					JOINT RightShoulder
					{
						OFFSET -3.31009 1.23247 0.08205
CHANNELS 3 Zrotation Xrotation Yrotation
						JOINT RightElbow
						{
OFFSET 0 -5.468500 0.000000
CHANNELS 3 Zrotation Xrotation Yrotation
							JOINT RightWrist
							{
OFFSET 0 -3.224110 -0.000000
CHANNELS 3 Zrotation Xrotation Yrotation
								JOINT rhand
								{
									OFFSET 0 0 0
CHANNELS 3 Zrotation Xrotation Yrotation
									JOINT RFingers
									{
OFFSET 0 -0.745280 0.000000
CHANNELS 3 Zrotation Xrotation Yrotation
										End Site
										{
OFFSET 0 -0.600860 0.000000
										}
									}
								}
								JOINT RThumb
								{
OFFSET 0 0.000000 0.000000
CHANNELS 3 Zrotation Xrotation Yrotation
									End Site
									{
OFFSET 0 -0.610040 0.610040
									}
								}
							}
						}
					}
				}
			}
		}
	}
}
MOTION
Frames: 6
Frame Time: 0.008333333333333333
10.358240 16.396075 -12.175772 1.947520 -4.121774 3.930453 0.000000 0.000000 0.000000 -23.915310 -6.648913 -29.573478 2.040279 8.948013 25.633863 -0.048457 4.054312 -2.641539 0.025743 -0.994659 -2.734553 0.000000 0.000000 0.000000 17.396269 -4.794698 0.715636 -6.007323 -14.425998 44.993069 -1.351995 -11.454475 21.116730 -0.322302 3.648889 -10.091046 -1.245626 2.450665 1.345550 -2.239295 3.243743 0.486739 -1.643214 1.622807 -0.193872 -14.388529 -6.814900 -23.497435 13.023492 -7.829534 20.655423 5.933152 -3.102040 11.784437 0.000000 0.000000 0.000000 5.068800 12.157974 -15.180678 8.773438 -14.798714 1.141533 13.885759 26.590658 -29.530948 0.000000 0.000000 0.000000 -7.125000 0.000000 0.000000 -19.507277 59.168501 6.916500 0.000000 0.000000 0.000000 -11.585979 3.143109 45.630806 -26.618002 -37.812456 -9.263965 -17.753380 -19.636425 -17.541788 0.000000 0.000000 0.000000 7.125000 0.000000 0.000000 6.724400 11.713834 5.254297
10.370343 16.425487 -12.034081 2.535457 -4.143010 3.853528 0.000000 0.000000 0.000000 -24.791399 -6.308964 -28.450113 1.909819 8.672806 24.778852 -0.038457 3.736457 -2.828632 0.010236 -0.609449 -1.674903 0.000000 0.000000 0.000000 16.703422 -4.493663 -0.937575 -6.698037 -15.057607 47.696547 -1.233004 -13.086714 20.592675 -0.336688 3.728155 -10.313233 -1.741667 2.408710 1.362020 -2.442382 3.179818 0.491585 -1.574797 1.590435 -0.214629 -14.276761 -6.753172 -23.447263 12.949726 -7.775328 20.716267 5.897535 -3.079317 11.780082 0.000000 0.000000 0.000000 5.265719 11.914093 -15.656313 8.767274 -14.788813 1.139964 14.202197 26.428178 -29.273514 0.000000 0.000000 0.000000 -7.125000 0.000000 0.000000 -18.992715 58.997275 6.648486 0.000000 0.000000 0.000000 -11.428298 3.207143 45.758996 -26.559246 -37.755584 -9.227986 -17.610818 -19.603897 -17.832830 0.000000 0.000000 0.000000 7.125000 0.000000 0.000000 6.829545 11.431265 5.379848
10.381033 16.446205 -11.894048 3.066226 -4.145523 3.750509 0.000000 0.000000 0.000000 -25.607468 -5.919909 -27.359711 1.789761 8.412094 23.973809 -0.026797 3.340932 -2.994748 0.005242 -0.455341 -1.251175 0.000000 0.000000 0.000000 16.063263 -4.291404 -2.262884 -7.368654 -15.626334 50.241242 -0.862399 -15.099222 18.329519 -0.271680 3.179972 -8.792885 -2.192524 2.356303 1.431281 -2.614898 3.099000 0.464640 -1.503273 1.550124 -0.296366 -14.200070 -6.670921 -23.296627 12.910037 -7.699119 20.739791 5.884262 -3.048796 11.742303 0.000000 0.000000 0.000000 5.437438 11.742812 -16.120416 8.779819 -14.808831 1.143198 14.430258 26.250280 -29.157875 0.000000 0.000000 0.000000 -7.125000 0.000000 0.000000 -18.671420 58.939846 6.503783 0.000000 0.000000 0.000000 -11.279109 3.333527 45.916229 -26.500371 -37.698518 -9.191959 -17.729757 -19.765312 -18.434724 0.000000 0.000000 0.000000 7.125000 0.000000 0.000000 6.778483 10.796856 5.426703
10.390686 16.457187 -11.755547 3.540696 -4.118872 3.633832 0.000000 0.000000 0.000000 -26.365795 -5.481813 -26.348235 1.685885 8.178111 23.256752 -0.014416 2.889965 -3.135487 0.009579 -0.628117 -1.726065 0.000000 0.000000 0.000000 15.455468 -4.233206 -3.179857 -8.009115 -16.123888 52.591979 -0.122539 -17.559011 13.458766 -0.059591 1.477461 -4.066300 -2.611874 2.284605 1.567613 -2.741438 2.987080 0.372516 -1.406463 1.495073 -0.482992 -14.188738 -6.561310 -22.988497 12.917451 -7.590906 20.716708 5.905247 -3.008855 11.657104 0.000000 0.000000 0.000000 5.555654 11.722037 -16.586143 8.838927 -14.903403 1.158377 14.425642 25.982232 -29.353525 0.000000 0.000000 0.000000 -7.125000 0.000000 0.000000 -18.813768 59.123884 6.638996 0.000000 0.000000 0.000000 -11.176213 3.583598 46.165460 -26.446859 -37.646545 -9.159222 -18.061179 -20.037837 -19.063574 0.000000 0.000000 0.000000 7.125000 0.000000 0.000000 6.592556 10.108899 5.369344
10.396323 16.487472 -11.618536 3.804714 -4.124673 3.660178 0.000000 0.000000 0.000000 -26.836846 -5.127276 -25.470583 1.594900 7.964015 22.605765 -0.008512 2.777381 -3.391396 0.023049 -0.952272 -2.617715 0.000000 0.000000 0.000000 15.211124 -3.958077 -4.851520 -8.634354 -16.558287 54.803904 0.165389 -18.553403 11.506693 -0.020063 0.828186 -2.276725 -2.898760 2.192696 1.579190 -2.781244 2.856311 0.309411 -1.287175 1.430695 -0.566692 -14.187706 -6.464329 -22.842563 12.893904 -7.466889 20.712733 5.918654 -2.960752 11.606300 0.000000 0.000000 0.000000 5.587006 11.564264 -16.731559 8.890845 -14.986316 1.171742 14.349838 25.863036 -29.527993 0.000000 0.000000 0.000000 -7.125000 0.000000 0.000000 -19.018300 59.271195 6.782306 0.000000 0.000000 0.000000 -11.151759 3.716622 46.483094 -26.474121 -37.673079 -9.175909 -18.051110 -19.917892 -18.931192 0.000000 0.000000 0.000000 7.125000 0.000000 0.000000 6.592079 10.246753 5.350720
10.401986 16.517355 -11.482339 3.946528 -4.143345 3.728266 0.000000 0.000000 0.000000 -27.151291 -4.857406 -24.603242 1.511090 7.761959 21.994088 -0.003786 2.773330 -3.712031 0.033360 -1.176291 -3.234031 0.000000 0.000000 0.000000 15.127702 -3.563839 -6.595112 -9.230216 -16.947393 56.873966 0.368247 -19.077046 9.920045 -0.014253 0.727675 -1.999949 -3.064430 2.103687 1.460652 -2.786167 2.742301 0.342589 -1.192066 1.372794 -0.474066 -14.140062 -6.396311 -22.926999 12.824130 -7.357616 20.733376 5.903571 -2.913247 11.606789 0.000000 0.000000 0.000000 5.609891 11.208206 -16.861245 8.962050 -15.099896 1.190241 14.363318 25.725314 -29.519612 0.000000 0.000000 0.000000 -7.125000 0.000000 0.000000 -18.998201 59.266325 6.772676 0.000000 0.000000 0.000000 -11.139197 3.667365 46.762995 -26.490926 -37.689426 -9.186196 -17.960073 -19.828366 -18.847929 0.000000 0.000000 0.000000 7.125000 0.000000 0.000000 6.647046 10.343775 5.382868
